<?xml version="1.0" standalone="no"?>
<!DOCTYPE svg PUBLIC "-//W3C//DTD SVG 20010904//EN"
 "http://www.w3.org/TR/2001/REC-SVG-20010904/DTD/svg10.dtd">
<svg version="1.0" xmlns="http://www.w3.org/2000/svg"
 width="825.000000pt" height="524.000000pt" viewBox="0 0 825.000000 524.000000"
 preserveAspectRatio="xMidYMid meet">

<g transform="translate(0.000000,524.000000) scale(0.100000,-0.100000)"
fill="#000000" stroke="none">
<path d="M3752 4473 c-26 -33 -41 -41 -108 -58 -122 -31 -119 -22 -127 -362
-10 -398 -9 -596 4 -631 20 -58 150 -126 277 -144 l82 -11 0 -33 c0 -40 22
-64 59 -64 36 0 61 28 61 67 0 26 4 31 31 37 76 15 69 65 69 -497 l0 -504 -37
-26 -37 -26 45 -20 c52 -24 111 -26 197 -6 77 18 110 35 184 92 95 72 157 96
252 95 45 0 101 -5 126 -11 136 -32 251 2 285 84 33 79 53 71 -207 78 -128 4
-251 11 -272 18 -47 13 -93 58 -104 103 -16 57 3 74 30 27 47 -83 173 -96 244
-25 19 20 40 33 47 29 7 -3 23 -12 36 -20 18 -10 47 -12 112 -8 l88 6 6 -39
c11 -62 15 -74 31 -74 15 0 19 16 5 22 -5 2 -12 24 -16 51 l-7 47 30 0 c27 0
34 -6 50 -42 10 -24 15 -44 10 -46 -16 -7 -7 -22 13 -22 23 0 23 8 -5 71 l-15
37 87 6 c210 15 200 13 259 73 l53 54 42 -35 c23 -20 57 -41 75 -48 18 -7 33
-17 33 -24 0 -12 -61 -72 -123 -118 -38 -29 -41 -29 -232 -40 l-194 -10 -7
-30 c-9 -45 -58 -118 -97 -144 -58 -38 -138 -48 -251 -28 -53 9 -118 16 -144
16 -63 -1 -143 -35 -224 -97 -140 -107 -336 -139 -444 -72 l-34 21 -50 -37
-50 -37 0 81 c0 115 9 111 -272 111 l-228 0 0 123 0 123 30 11 30 11 0 136 c0
124 -2 136 -19 146 -25 13 -381 13 -415 0 l-26 -10 0 -136 0 -136 30 -11 30
-11 0 -123 0 -123 -110 0 -110 0 0 123 0 123 30 11 30 11 0 136 c0 124 -2 136
-19 146 -12 6 -97 10 -208 10 -246 0 -233 9 -233 -155 0 -127 8 -155 46 -155
11 0 14 -23 14 -125 l0 -125 -110 0 -110 0 0 124 c0 123 0 124 25 130 40 10
47 37 43 163 -3 100 -6 116 -22 129 -16 11 -62 14 -211 14 -249 0 -235 9 -235
-155 0 -127 8 -155 46 -155 11 0 14 -23 14 -125 l0 -125 -229 0 -230 0 -21
-27 c-19 -25 -21 -38 -18 -111 4 -107 10 -112 130 -112 l88 0 0 -52 0 -53 -59
0 c-64 0 -96 -16 -135 -69 -28 -37 -30 -149 -3 -189 9 -14 17 -28 17 -30 0 -2
-15 -3 -34 -4 -80 -2 -131 -56 -130 -134 1 -67 24 -94 119 -144 92 -47 126
-89 106 -131 l-11 -25 -26 30 c-31 37 -90 56 -129 41 -16 -6 -50 -28 -78 -50
-54 -44 -94 -51 -119 -22 -9 9 -23 50 -31 89 -27 121 -79 201 -152 234 -56 26
-82 24 -116 -10 -39 -39 -38 -82 1 -144 16 -26 35 -47 42 -47 7 -1 -1 -7 -17
-14 -41 -18 -65 -57 -65 -106 0 -81 99 -150 218 -150 l43 0 -20 -26 c-12 -15
-21 -41 -21 -61 0 -40 33 -93 58 -93 9 0 -7 -14 -37 -30 -70 -39 -91 -57 -107
-97 -58 -137 81 -269 227 -217 27 10 49 21 49 25 0 4 -15 10 -34 13 -19 4 -45
15 -58 26 -20 17 -21 21 -8 30 24 16 108 38 203 53 l87 14 0 -28 c0 -63 -70
-59 1054 -59 910 0 1028 -2 1061 -16 35 -14 42 -14 79 0 28 11 75 16 143 16
116 0 124 5 130 78 7 75 -7 86 -119 92 l-93 5 190 39 c105 22 198 41 208 44
15 4 17 -3 17 -51 0 -45 -4 -58 -19 -67 -26 -13 -44 -70 -32 -101 11 -29 38
-54 68 -63 28 -9 88 16 102 42 20 37 13 91 -14 116 -20 19 -25 33 -25 75 0 28
3 51 8 51 8 -1 346 -74 415 -90 46 -11 47 -13 29 -26 -32 -22 -47 -79 -31
-116 25 -62 125 -71 164 -15 23 32 19 89 -7 117 -13 13 -27 38 -33 55 l-10 30
-267 55 -268 55 0 110 0 111 268 102 268 103 94 -44 c52 -25 123 -55 158 -67
44 -16 62 -28 62 -41 0 -35 -13 -49 -54 -60 -103 -27 -103 -102 2 -124 38 -8
60 -39 42 -60 -6 -8 -26 -17 -43 -20 -100 -21 -104 -103 -6 -121 37 -7 59 -28
59 -55 0 -14 -12 -17 -69 -21 -56 -3 -75 -9 -105 -31 -35 -28 -54 -66 -41 -86
4 -8 211 -11 659 -11 575 0 655 2 666 15 18 22 0 52 -51 88 -22 16 -46 45 -54
64 -14 34 -14 38 5 58 24 26 25 39 4 75 -16 26 -16 29 5 58 41 58 138 88 221
68 l35 -8 -31 33 c-74 79 -72 104 9 113 92 11 194 35 207 51 6 7 14 30 17 52
3 21 12 45 20 54 8 9 18 30 22 45 6 22 15 30 45 37 49 12 70 45 62 97 -10 61
1 90 33 90 41 0 68 25 86 81 20 60 35 51 35 -21 0 -58 -29 -120 -71 -153 l-33
-26 49 1 c30 1 64 -6 83 -16 38 -19 66 -75 57 -109 -23 -81 -37 -93 -150 -128
-69 -21 -125 -66 -125 -100 0 -30 17 -59 62 -105 94 -98 42 -226 -86 -212
l-46 6 -1 -37 c-1 -86 -61 -166 -151 -202 -37 -14 -35 -23 6 -43 42 -20 76
-20 123 -1 70 30 88 23 138 -55 48 -76 102 -119 163 -129 73 -14 135 14 180
79 43 63 20 155 -56 220 l-46 39 26 10 c55 21 84 92 57 142 -10 20 -9 20 38
12 105 -18 168 -1 217 57 38 46 36 101 -5 143 -21 20 -27 33 -19 35 7 3 30 20
51 39 79 72 53 172 -45 173 -89 0 -177 -72 -241 -197 -40 -77 -40 -78 -79 -78
-36 0 -44 5 -81 54 -49 64 -84 84 -136 79 -75 -7 -30 29 77 61 84 25 106 40
128 85 43 92 -17 196 -114 196 -20 0 -20 1 4 33 14 18 31 56 37 85 10 43 10
57 -4 94 l-17 44 210 614 c115 338 210 622 210 631 0 10 -11 27 -25 38 -77 60
-477 171 -733 202 -84 11 -101 16 -98 28 3 9 7 31 11 49 4 17 11 32 17 32 5 0
38 28 73 63 47 47 65 73 70 100 8 43 -1 107 -16 107 -5 0 -7 11 -3 24 3 14 3
34 -1 45 -16 51 -199 130 -271 116 -49 -9 -85 -26 -81 -39 2 -5 -11 -22 -27
-37 -30 -27 -30 -27 -12 -48 10 -11 27 -23 36 -26 16 -5 14 -16 -21 -123 -47
-143 -48 -164 -9 -203 29 -30 29 -30 13 -64 -16 -34 -19 -35 -73 -35 -134 0
-248 -57 -326 -163 -93 -126 -175 -257 -169 -268 4 -6 -15 -34 -46 -65 -62
-63 -40 -58 -378 -79 l-244 -16 -33 23 c-18 12 -32 29 -32 38 3 42 -5 62 -37
94 -86 86 -270 58 -305 -48 -6 -19 -18 -37 -26 -40 -11 -4 -13 -15 -8 -43 10
-56 31 -91 67 -113 l32 -20 -32 0 c-39 0 -77 -33 -68 -59 5 -15 -2 -19 -40
-24 -53 -8 -98 -30 -182 -92 l-63 -46 0 484 0 485 23 6 c35 8 114 62 132 89
14 22 16 64 15 321 l0 296 140 0 c121 0 141 2 147 16 13 34 -24 44 -159 44
l-128 0 -1 83 c-1 194 -23 233 -140 256 -54 11 -69 19 -97 52 l-34 39 -148 0
-148 0 -30 -37z m206 -45 c16 -16 15 -23 -4 -42 -12 -12 -20 -13 -35 -6 -19
10 -26 40 -12 53 10 11 38 8 51 -5z m293 -216 l26 -10 6 -346 c4 -213 3 -355
-3 -371 -12 -31 -88 -80 -155 -101 -27 -9 -95 -18 -151 -21 -162 -9 -281 20
-358 87 l-36 32 0 348 c0 295 2 351 15 363 9 10 45 18 92 22 43 3 85 8 93 10
31 8 446 -3 471 -13z m2048 -550 c19 -7 47 -12 62 -12 19 0 30 -6 34 -20 3
-11 11 -20 16 -20 5 0 1 -17 -9 -37 -11 -21 -22 -50 -26 -65 -6 -26 -5 -27 24
-22 60 12 49 -68 -12 -84 -18 -5 -32 -15 -30 -22 4 -17 -28 -170 -39 -192 -6
-10 -20 -18 -33 -18 -31 0 -117 26 -140 43 -18 13 -17 15 4 58 12 24 24 45 25
47 1 1 14 -2 28 -7 35 -14 153 16 136 34 -3 2 -27 -2 -54 -11 -60 -18 -79 -14
-127 26 -47 39 -48 56 -7 177 32 96 40 104 81 82 16 -9 19 -8 16 3 -3 7 -17
14 -31 16 -30 4 -32 10 -16 46 12 25 12 25 38 7 14 -10 41 -23 60 -29z m-186
-431 c11 -45 152 -95 202 -73 14 6 25 18 25 27 0 11 22 4 89 -29 179 -91 197
-154 140 -509 -21 -131 -23 -139 -43 -134 -12 3 -59 15 -106 28 l-86 23 17 95
c10 53 16 98 14 100 -12 11 -23 -19 -34 -92 -7 -47 -25 -133 -40 -193 l-27
-108 -35 -7 c-45 -9 -639 -43 -645 -36 -2 2 33 78 78 168 154 303 208 418 198
424 -5 3 -31 -37 -57 -90 -26 -52 -54 -95 -61 -95 -27 0 -79 31 -116 69 l-38
39 82 122 c144 214 198 257 354 280 79 12 83 11 89 -9z m-1370 -386 c52 -22
90 -71 83 -109 -9 -44 -30 -71 -69 -90 -70 -33 -145 -11 -183 54 -14 24 -25
30 -41 27 -29 -5 -30 16 -3 60 38 64 136 90 213 58z m-2823 -131 c0 -104 -3
-135 -12 -132 -9 3 -14 39 -16 123 -3 122 0 145 18 145 6 0 10 -49 10 -136z
m50 1 c0 -113 -2 -135 -15 -135 -13 0 -15 22 -15 135 0 113 2 135 15 135 13 0
15 -22 15 -135z m50 0 c0 -113 -2 -135 -15 -135 -13 0 -15 22 -15 135 0 113 2
135 15 135 13 0 15 -22 15 -135z m50 0 c0 -113 -2 -135 -15 -135 -13 0 -15 22
-15 135 0 113 2 135 15 135 13 0 15 -22 15 -135z m50 0 c0 -113 -2 -135 -15
-135 -13 0 -15 22 -15 135 0 113 2 135 15 135 13 0 15 -22 15 -135z m50 0 c0
-113 -2 -135 -15 -135 -13 0 -15 22 -15 135 0 113 2 135 15 135 13 0 15 -22
15 -135z m50 0 c0 -113 -2 -135 -15 -135 -13 0 -15 22 -15 135 0 113 2 135 15
135 13 0 15 -22 15 -135z m50 0 c0 -113 -2 -135 -15 -135 -13 0 -15 22 -15
135 0 113 2 135 15 135 13 0 15 -22 15 -135z m45 0 c0 -94 -3 -129 -12 -132
-10 -4 -13 27 -13 132 0 105 3 136 13 133 9 -4 12 -39 12 -133z m155 -1 c0
-87 -4 -133 -10 -129 -6 4 -10 58 -10 129 0 108 3 136 17 136 2 0 3 -61 3
-136z m50 1 c0 -113 -2 -135 -15 -135 -13 0 -15 22 -15 135 0 113 2 135 15
135 13 0 15 -22 15 -135z m60 0 c0 -128 -1 -135 -20 -135 -19 0 -20 7 -20 135
0 128 1 135 20 135 19 0 20 -7 20 -135z m50 0 c0 -113 -2 -135 -15 -135 -13 0
-15 22 -15 135 0 113 2 135 15 135 13 0 15 -22 15 -135z m50 0 c0 -113 -2
-135 -15 -135 -13 0 -15 22 -15 135 0 113 2 135 15 135 13 0 15 -22 15 -135z
m50 0 c0 -113 -2 -135 -15 -135 -13 0 -15 22 -15 135 0 113 2 135 15 135 13 0
15 -22 15 -135z m50 0 c0 -113 -2 -135 -15 -135 -13 0 -15 22 -15 135 0 113 2
135 15 135 13 0 15 -22 15 -135z m50 0 c0 -113 -2 -135 -15 -135 -13 0 -15 22
-15 135 0 113 2 135 15 135 13 0 15 -22 15 -135z m45 0 c0 -94 -3 -129 -12
-132 -10 -4 -13 27 -13 132 0 105 3 136 13 133 9 -4 12 -39 12 -133z m155 -1
c0 -87 -4 -133 -10 -129 -6 4 -10 58 -10 129 0 108 3 136 17 136 2 0 3 -61 3
-136z m50 1 c0 -113 -2 -135 -15 -135 -13 0 -15 22 -15 135 0 113 2 135 15
135 13 0 15 -22 15 -135z m60 0 c0 -128 -1 -135 -20 -135 -19 0 -20 7 -20 135
0 128 1 135 20 135 19 0 20 -7 20 -135z m50 0 c0 -113 -2 -135 -15 -135 -13 0
-15 22 -15 135 0 113 2 135 15 135 13 0 15 -22 15 -135z m50 0 c0 -113 -2
-135 -15 -135 -13 0 -15 22 -15 135 0 113 2 135 15 135 13 0 15 -22 15 -135z
m50 0 c0 -113 -2 -135 -15 -135 -13 0 -15 22 -15 135 0 113 2 135 15 135 13 0
15 -22 15 -135z m50 0 c0 -113 -2 -135 -15 -135 -13 0 -15 22 -15 135 0 113 2
135 15 135 13 0 15 -22 15 -135z m50 0 c0 -113 -2 -135 -15 -135 -13 0 -15 22
-15 135 0 113 2 135 15 135 13 0 15 -22 15 -135z m44 119 c3 -9 6 -62 6 -119
0 -57 -3 -110 -6 -119 -16 -42 -24 -4 -24 119 0 123 8 161 24 119z m1078 -177
c9 -28 15 -54 13 -56 -7 -6 -45 81 -45 103 0 30 13 10 32 -47z m1172 -89 c-33
-65 -38 -70 -45 -50 -5 12 -14 22 -21 22 -9 0 88 98 100 100 1 0 -14 -33 -34
-72z m-3714 -35 c0 -52 23 -63 132 -63 85 0 101 3 118 20 11 11 20 31 20 45 0
14 5 25 10 25 6 0 10 -48 10 -125 l0 -125 -155 0 -155 0 0 125 c0 77 4 125 10
125 6 0 10 -12 10 -27z m560 0 c0 -52 23 -63 132 -63 85 0 101 3 118 20 11 11
20 31 20 45 0 14 5 25 10 25 6 0 10 -48 10 -125 l0 -125 -155 0 -155 0 0 125
c0 77 4 125 10 125 6 0 10 -12 10 -27z m578 -45 c12 -15 32 -18 114 -18 85 0
101 3 118 20 11 11 20 31 20 45 0 14 5 25 10 25 6 0 10 -48 10 -125 l0 -125
-155 0 -155 0 1 128 c0 102 3 121 11 97 6 -16 17 -38 26 -47z m3350 25 c29 -9
52 -23 52 -30 0 -8 -12 -61 -27 -120 -36 -145 -43 -151 -173 -169 -131 -17
-339 -18 -533 -2 -134 11 -154 10 -221 -6 -51 -13 -94 -17 -139 -14 -53 5 -71
2 -94 -13 -16 -11 -46 -19 -70 -19 -36 0 -43 3 -43 20 0 22 63 73 119 97 49
21 223 39 556 58 160 9 313 20 340 23 55 8 49 -2 91 145 l16 59 36 -7 c21 -3
61 -14 90 -22z m-844 -84 c-14 -29 -19 -31 -52 -25 -21 3 -53 6 -72 7 -28 0
-23 3 27 14 34 8 70 18 80 24 30 17 34 12 17 -20z m-1618 -258 c-3 -4 -98 -84
-211 -177 -167 -137 -205 -173 -201 -189 4 -18 3 -17 -15 4 -11 13 -16 28 -11
33 9 9 435 336 440 337 2 1 1 -3 -2 -8z m-2066 -456 l0 -345 -37 20 c-23 12
-57 20 -85 20 l-48 0 0 325 0 325 85 0 85 0 0 -345z m330 -290 l0 -635 -155 0
-155 0 0 635 0 635 155 0 155 0 0 -635z m230 0 l0 -635 -110 0 -110 0 0 635 0
635 110 0 110 0 0 -635z m330 0 l0 -635 -155 0 -155 0 0 635 0 635 155 0 155
0 0 -635z m230 564 l0 -71 -29 7 c-38 8 -67 -7 -87 -47 -15 -30 -15 -34 1 -65
10 -18 40 -47 67 -63 l48 -30 0 -460 0 -460 -110 0 -110 0 0 630 0 630 110 0
110 0 0 -71z m328 -36 l-3 -108 -40 3 c-56 4 -182 31 -227 49 l-38 15 0 74 0
74 155 0 156 0 -3 -107z m182 29 l0 -78 -37 -18 c-21 -10 -59 -24 -85 -31
l-48 -13 0 109 0 109 85 0 85 0 0 -78z m223 55 c-15 -13 -47 -38 -70 -56 l-43
-33 0 56 0 56 71 0 71 0 -29 -23z m1396 -69 c101 -18 179 -34 173 -36 -5 -1
-91 9 -191 23 -209 29 -334 32 -412 9 -30 -9 -244 -99 -475 -200 -232 -101
-428 -184 -436 -184 -8 0 -32 16 -54 35 l-39 34 40 -19 c21 -11 46 -20 54 -20
9 0 202 82 431 182 228 100 444 190 480 200 87 24 193 18 429 -24z m-1129 8
c0 -2 -8 -10 -17 -17 -16 -13 -17 -12 -4 4 13 16 21 21 21 13z m-2400 -612 l0
-574 -30 0 c-35 0 -46 17 -56 87 -4 33 -2 53 5 57 21 14 1 24 -37 20 -91 -12
-155 94 -106 174 9 15 40 45 68 67 42 34 52 47 54 76 4 50 -27 84 -116 127
-86 41 -112 74 -112 139 0 33 7 50 29 75 25 28 36 33 78 33 26 0 59 -4 73 -9
l25 -8 -21 23 c-72 80 -73 223 -2 268 28 18 83 28 121 23 l27 -4 0 -574z
m2360 582 c0 -12 -304 -255 -312 -250 -22 14 6 40 152 143 161 114 160 114
160 107z m2000 -23 c1 -51 28 -180 45 -217 9 -19 34 -46 54 -58 33 -21 47 -23
186 -23 107 0 171 5 223 18 66 16 75 16 102 2 26 -13 29 -19 20 -35 -6 -11
-29 -24 -53 -30 -23 -6 -58 -16 -77 -22 -19 -5 -105 -12 -191 -15 -129 -5
-165 -3 -214 12 -117 34 -178 134 -192 318 l-6 77 52 0 c49 0 51 -1 51 -27z
m-597 0 c-7 -2 -21 -2 -30 0 -10 3 -4 5 12 5 17 0 24 -2 18 -5z m-2323 -37
c35 -12 58 -26 52 -30 -6 -3 -34 3 -62 14 -28 11 -64 20 -81 20 -18 0 -28 4
-24 10 10 16 48 12 115 -14z m174 -76 c106 -58 226 -100 288 -100 39 0 49 -3
41 -11 -33 -33 -232 14 -321 75 -27 19 -68 40 -92 47 -34 10 -39 14 -24 20 29
12 31 11 108 -31z m106 20 c54 -1 61 -3 40 -12 -31 -12 -129 -4 -144 13 -8 9
-5 10 14 5 14 -3 54 -6 90 -6z m231 -103 c-30 -9 -111 0 -111 13 0 5 10 24 23
43 l22 34 46 -41 46 -41 -26 -8z m-486 -33 c75 -31 93 -51 93 -106 1 -72 25
-107 105 -148 l67 -35 0 -307 0 -308 -155 0 -155 0 0 460 c0 253 2 460 4 460
2 0 20 -7 41 -16z m662 -120 c-12 -18 -86 -26 -122 -14 -46 15 -51 37 -15 68
17 15 30 36 30 49 0 19 8 15 58 -35 34 -35 54 -61 49 -68z m1408 -45 c61 -21
309 -64 500 -85 84 -9 274 -18 473 -21 182 -3 332 -9 332 -13 0 -15 -233 -23
-470 -17 -248 6 -407 23 -700 76 -91 16 -184 33 -207 36 l-43 7 0 -94 c0 -51
5 -111 10 -133 5 -22 8 -41 6 -42 -8 -8 -336 135 -336 147 0 3 66 33 147 65
80 33 160 69 177 81 17 12 38 20 46 17 8 -4 38 -14 65 -24z m1350 -121 c-12
-39 -25 -44 -25 -10 0 22 5 32 16 32 11 0 14 -6 9 -22z m-4636 -37 l32 -23 -3
-86 c-3 -85 -3 -87 -35 -107 -42 -26 -41 -37 2 -29 l35 6 0 -171 0 -171 -84 0
-85 0 -1 306 0 306 53 -4 c34 -3 65 -13 86 -27z m1584 -6 l77 -30 0 -245 c0
-135 -3 -255 -6 -267 -6 -21 -12 -23 -85 -23 l-79 0 0 301 c0 165 4 299 8 297
5 -1 43 -16 85 -33z m319 -115 c66 -22 160 -48 209 -58 l90 -17 -3 -109 -3
-110 -180 -37 c-99 -21 -195 -40 -212 -44 l-33 -6 0 211 c0 115 3 210 6 210 3
0 60 -18 126 -40z m2411 -86 c3 -20 13 -44 22 -54 15 -16 13 -18 -37 -22 -73
-6 -125 -34 -162 -85 -26 -37 -34 -43 -56 -38 -66 16 -63 60 6 83 93 31 97 86
9 116 l-39 14 89 6 c50 4 99 8 110 10 49 8 52 6 58 -30z m-4283 -14 c0 -5 -5
-10 -11 -10 -5 0 -7 5 -4 10 3 6 8 10 11 10 2 0 4 -4 4 -10z m5030 -123 c0 -2
-15 -16 -32 -33 l-33 -29 29 33 c28 30 36 37 36 29z m-5669 -34 c13 -16 12
-17 -3 -4 -10 7 -18 15 -18 17 0 8 8 3 21 -13z m75 -85 l29 -33 -32 29 c-31
28 -38 36 -30 36 2 0 16 -15 33 -32z m5484 18 c0 -2 -8 -10 -17 -17 -16 -13
-17 -12 -4 4 13 16 21 21 21 13z m-50 -40 c0 -2 -8 -10 -17 -17 -16 -13 -17
-12 -4 4 13 16 21 21 21 13z m-40 -30 c0 -2 -8 -10 -17 -17 -16 -13 -17 -12
-4 4 13 16 21 21 21 13z m-731 -78 c1 -5 -23 -8 -53 -8 l-54 0 7 28 c5 19 17
30 42 38 33 11 34 11 46 -20 6 -17 12 -34 12 -38z m683 40 c-6 -7 -25 -22 -44
-32 -39 -23 -32 -13 14 20 38 26 45 29 30 12z"/>
<path d="M3708 4023 c29 -2 74 -2 100 0 26 2 2 3 -53 3 -55 0 -76 -1 -47 -3z"/>
<path d="M3708 3983 c29 -2 74 -2 100 0 26 2 2 3 -53 3 -55 0 -76 -1 -47 -3z"/>
<path d="M3708 3943 c29 -2 74 -2 100 0 26 2 2 3 -53 3 -55 0 -76 -1 -47 -3z"/>
<path d="M3708 3903 c29 -2 74 -2 100 0 26 2 2 3 -53 3 -55 0 -76 -1 -47 -3z"/>
<path d="M6315 3600 c-4 -6 -1 -10 6 -10 7 0 21 -7 31 -17 15 -14 18 -14 18
-1 0 18 -47 42 -55 28z"/>
<path d="M6200 3569 c0 -5 5 -7 10 -4 6 3 10 8 10 11 0 2 -4 4 -10 4 -5 0 -10
-5 -10 -11z"/>
<path d="M6230 3524 c-8 -16 -16 -32 -18 -36 -2 -5 2 -8 9 -8 7 0 9 3 6 7 -4
3 0 14 9 24 9 10 14 23 12 30 -2 6 -10 -2 -18 -17z"/>
<path d="M6305 3530 c-3 -5 1 -10 10 -10 9 0 13 5 10 10 -3 6 -8 10 -10 10 -2
0 -7 -4 -10 -10z"/>
<path d="M6280 3440 c-8 -5 -25 -10 -38 -10 -13 0 -20 -4 -17 -10 10 -16 41
-12 66 10 25 20 16 27 -11 10z"/>
<path d="M2190 4321 c-81 -26 -157 -84 -200 -150 l-31 -48 -61 24 c-171 69
-373 -9 -455 -175 -25 -51 -28 -68 -28 -157 0 -99 0 -101 45 -184 53 -99 163
-217 252 -270 127 -74 296 -121 442 -121 74 0 81 2 126 35 78 57 217 211 265
293 140 239 137 518 -7 661 -68 67 -135 94 -237 98 -47 1 -97 -1 -111 -6z
m236 -35 c72 -33 138 -97 170 -164 22 -46 27 -75 32 -162 7 -163 -26 -277
-124 -426 -57 -86 -205 -236 -267 -269 -34 -18 -43 -18 -146 -7 -219 24 -357
88 -497 227 -71 71 -99 107 -130 169 -36 73 -39 87 -39 160 1 66 5 92 27 137
36 79 89 133 166 171 58 29 76 33 147 33 66 0 90 -5 139 -28 32 -15 60 -26 60
-25 1 2 18 29 39 60 89 139 274 192 423 124z"/>
<path d="M4937 3618 c-82 -163 -107 -232 -114 -324 -7 -89 -1 -114 39 -159 57
-66 158 -86 235 -47 44 23 64 43 88 91 38 75 -5 248 -112 451 -30 58 -58 108
-62 113 -4 4 -37 -53 -74 -125z m127 -13 c92 -182 100 -292 28 -368 -40 -43
-75 -57 -137 -57 -67 0 -115 21 -116 53 -3 60 5 106 28 176 28 83 128 291 141
291 4 0 29 -43 56 -95z"/>
<path d="M5402 3628 l3 -123 145 -3 c130 -2 146 -5 166 -23 13 -12 27 -18 33
-14 7 4 11 57 11 146 l0 139 -180 0 -181 0 3 -122z m348 -24 l0 -136 -31 26
c-30 25 -35 26 -170 26 l-139 0 0 110 0 110 170 0 170 0 0 -136z"/>
<path d="M5470 3625 c0 -9 5 -15 11 -13 6 2 11 8 11 13 0 5 -5 11 -11 13 -6 2
-11 -4 -11 -13z"/>
<path d="M5567 3634 c-8 -8 1 -24 14 -24 5 0 9 7 9 15 0 15 -12 20 -23 9z"/>
<path d="M5662 3628 c6 -18 28 -21 28 -4 0 9 -7 16 -16 16 -9 0 -14 -5 -12
-12z"/>
</g>
</svg>
